<svg xmlns="http://www.w3.org/2000/svg" viewBox="0 0 65.477 16" width="65.477" height="16"><path fill="#7289da" d="M6.548 2.498H2.462v4.628l2.72 2.462V5.095H6.646c0.923 0 1.378 0.455 1.378 1.169v3.434c0 0.714 -0.431 1.194 -1.378 1.194H2.462v2.609h4.086c2.191 0.012 4.246 -1.083 4.246 -3.618V6.178c0 -2.56 -2.055 -3.68 -4.246 -3.68zm21.428 7.397V6.105c0 -1.366 2.437 -1.686 3.175 -0.308l2.252 -0.923C32.529 2.917 30.905 2.338 29.563 2.338c-2.191 0 -4.357 1.28 -4.357 3.766v3.791c0 2.498 2.166 3.766 4.308 3.766 1.378 0 3.028 -0.689 3.938 -2.474l-2.412 -1.12c-0.591 1.526 -3.065 1.157 -3.065 -0.172zm-7.458 -3.274c-0.849 -0.185 -1.415 -0.492 -1.452 -1.022 0.049 -1.28 2.006 -1.317 3.151 -0.098l1.809 -1.403C22.892 2.708 21.612 2.338 20.283 2.338c-2.006 0 -3.951 1.132 -3.951 3.298 0 2.105 1.6 3.225 3.36 3.495 0.898 0.123 1.895 0.48 1.871 1.108 -0.074 1.182 -2.486 1.12 -3.582 -0.222L16.246 11.668c1.022 1.317 2.412 1.994 3.717 1.994 2.006 0 4.234 -1.169 4.32 -3.298 0.123 -2.708 -1.822 -3.385 -3.766 -3.742zm-8.234 6.88h2.757V2.498H12.283v11.003zm46.486 -11.003h-4.086v4.628l2.72 2.462V5.095h1.452c0.923 0 1.378 0.455 1.378 1.169v3.434c0 0.714 -0.431 1.194 -1.378 1.194h-4.185v2.609h4.086c2.191 0.012 4.246 -1.083 4.246 -3.618V6.178c0.012 -2.56 -2.043 -3.68 -4.234 -3.68zM38.72 2.338c-2.265 0 -4.517 1.243 -4.517 3.778v3.766c0 2.523 2.265 3.778 4.542 3.778 2.265 0 4.517 -1.255 4.517 -3.778V6.117c0 -2.523 -2.277 -3.778 -4.542 -3.778zM40.492 9.883c0 0.788 -0.886 1.194 -1.76 1.194 -0.886 0 -1.772 -0.394 -1.772 -1.194V6.117c0 -0.812 0.862 -1.243 1.723 -1.243 0.898 0 1.809 0.394 1.809 1.243v3.766zm12.652 -3.766c-0.062 -2.585 -1.809 -3.618 -4.062 -3.618h-4.369v11.015H47.508V10.006h0.492l2.535 3.495h3.446L51.003 9.723c1.329 -0.418 2.142 -1.563 2.142 -3.606zm-4.012 1.489H47.508V5.095h1.625c1.748 0 1.748 2.511 0 2.511z"/></svg>