<svg xmlns="http://www.w3.org/2000/svg" viewBox="0 0 32.739 8" width="32.739" height="8"><path fill="#7289da" d="M3.274 1.249H1.231v2.314l1.36 1.231V2.548H3.323c0.462 0 0.689 0.228 0.689 0.585v1.717c0 0.357 -0.216 0.597 -0.689 0.597H1.231v1.305h2.043c1.096 0.006 2.123 -0.542 2.123 -1.809V3.089c0 -1.28 -1.028 -1.84 -2.123 -1.84zm10.714 3.699V3.053c0 -0.683 1.219 -0.843 1.588 -0.154l1.126 -0.462C16.265 1.459 15.453 1.169 14.782 1.169c-1.096 0 -2.179 0.64 -2.179 1.883v1.896c0 1.249 1.083 1.883 2.154 1.883 0.689 0 1.514 -0.345 1.969 -1.237l-1.206 -0.56c-0.296 0.763 -1.533 0.579 -1.533 -0.086zm-3.729 -1.637c-0.425 -0.093 -0.708 -0.246 -0.726 -0.511 0.025 -0.64 1.003 -0.659 1.576 -0.049l0.905 -0.702C11.446 1.354 10.806 1.169 10.142 1.169c-1.003 0 -1.976 0.566 -1.976 1.649 0 1.053 0.8 1.613 1.68 1.748 0.449 0.062 0.948 0.24 0.936 0.554 -0.037 0.591 -1.243 0.56 -1.791 -0.111L8.123 5.834c0.511 0.659 1.206 0.997 1.859 0.997 1.003 0 2.117 -0.585 2.16 -1.649 0.062 -1.354 -0.911 -1.693 -1.883 -1.871zm-4.117 3.44h1.379V1.249H6.142v5.502zm23.243 -5.502h-2.043v2.314l1.36 1.231V2.548h0.726c0.462 0 0.689 0.228 0.689 0.585v1.717c0 0.357 -0.216 0.597 -0.689 0.597h-2.093v1.305h2.043c1.096 0.006 2.123 -0.542 2.123 -1.809V3.089c0.006 -1.28 -1.022 -1.84 -2.117 -1.84zM19.36 1.169c-1.133 0 -2.259 0.622 -2.259 1.889v1.883c0 1.262 1.133 1.889 2.271 1.889 1.133 0 2.259 -0.628 2.259 -1.889V3.059c0 -1.262 -1.139 -1.889 -2.271 -1.889zM20.246 4.942c0 0.394 -0.443 0.597 -0.88 0.597 -0.443 0 -0.886 -0.197 -0.886 -0.597V3.059c0 -0.406 0.431 -0.622 0.862 -0.622 0.449 0 0.905 0.197 0.905 0.622v1.883zm6.326 -1.883c-0.031 -1.293 -0.905 -1.809 -2.031 -1.809h-2.185v5.508H23.754V5.003h0.246l1.268 1.748h1.723L25.502 4.862c0.665 -0.209 1.071 -0.782 1.071 -1.803zm-2.006 0.745H23.754V2.548h0.813c0.874 0 0.874 1.256 0 1.256z"/></svg>